<svg width="15" height="18" viewBox="0 0 15 18" fill="none" xmlns="http://www.w3.org/2000/svg">
<path d="M0 13.2632C0 14.0968 0.365625 14.8453 0.9375 15.3663V17.0526C0.9375 17.5737 1.35938 18 1.875 18H2.8125C3.32812 18 3.75 17.5737 3.75 17.0526V16.1053H11.25V17.0526C11.25 17.5737 11.6719 18 12.1875 18H13.125C13.6406 18 14.0625 17.5737 14.0625 17.0526V15.3663C14.6344 14.8453 15 14.0968 15 13.2632V3.78947C15 0.473684 11.6438 0 7.5 0C3.35625 0 0 0.473684 0 3.78947V13.2632ZM3.28125 14.2105C2.50312 14.2105 1.875 13.5758 1.875 12.7895C1.875 12.0032 2.50312 11.3684 3.28125 11.3684C4.05937 11.3684 4.6875 12.0032 4.6875 12.7895C4.6875 13.5758 4.05937 14.2105 3.28125 14.2105ZM11.7188 14.2105C10.9406 14.2105 10.3125 13.5758 10.3125 12.7895C10.3125 12.0032 10.9406 11.3684 11.7188 11.3684C12.4969 11.3684 13.125 12.0032 13.125 12.7895C13.125 13.5758 12.4969 14.2105 11.7188 14.2105ZM13.125 8.52632H1.875V3.78947H13.125V8.52632Z" fill="#1CC8EE"/>
</svg>
