<svg width="40" height="40" viewBox="0 0 40 40" fill="none" xmlns="http://www.w3.org/2000/svg">
<rect width="40" height="40" rx="6" fill="#1CC8EE"/>
<path d="M27.4974 13.3784C27.0607 12.9414 26.5421 12.5948 25.9713 12.3582C25.4005 12.1217 24.7887 12 24.1708 12C23.553 12 22.9412 12.1217 22.3704 12.3582C21.7996 12.5948 21.281 12.9414 20.8442 13.3784L19.9377 14.2849L19.0312 13.3784C18.1489 12.4961 16.9523 12.0005 15.7046 12.0005C14.4568 12.0005 13.2602 12.4961 12.3779 13.3784C11.4957 14.2607 11 15.4573 11 16.705C11 17.9528 11.4957 19.1494 12.3779 20.0317L13.2844 20.9382L19.9377 27.5914L26.591 20.9382L27.4974 20.0317C27.9344 19.5949 28.2811 19.0763 28.5176 18.5055C28.7541 17.9347 28.8758 17.3229 28.8758 16.705C28.8758 16.0872 28.7541 15.4754 28.5176 14.9046C28.2811 14.3338 27.9344 13.8152 27.4974 13.3784V13.3784Z" stroke="#F5F5F5" stroke-width="1.5" stroke-linecap="round" stroke-linejoin="round"/>
<rect x="21.0059" y="18.6716" width="8.99413" height="8.99413" rx="4.49707" fill="#F5F5F5"/>
<path fill-rule="evenodd" clip-rule="evenodd" d="M25.9031 21.2398C25.9031 21.0189 25.724 20.8398 25.5031 20.8398C25.2822 20.8398 25.1031 21.0189 25.1031 21.2398V22.7689H23.5741C23.3532 22.7689 23.1741 22.948 23.1741 23.1689C23.1741 23.3898 23.3532 23.5689 23.5741 23.5689H25.1031V25.0977C25.1031 25.3186 25.2822 25.4977 25.5031 25.4977C25.724 25.4977 25.9031 25.3186 25.9031 25.0977V23.5689H27.4319C27.6528 23.5689 27.8319 23.3898 27.8319 23.1689C27.8319 22.948 27.6528 22.7689 27.4319 22.7689H25.9031V21.2398Z" fill="#1CC8EE"/>
</svg>
