<svg width="24" height="24" viewBox="0 0 24 24" fill="none" xmlns="http://www.w3.org/2000/svg">
<path d="M19.5695 5.57411C19.1322 5.13652 18.6129 4.7894 18.0413 4.55257C17.4697 4.31574 16.8571 4.19385 16.2384 4.19385C15.6197 4.19385 15.0071 4.31574 14.4355 4.55257C13.864 4.7894 13.3447 5.13652 12.9073 5.57411L11.9996 6.48182L11.0919 5.57411C10.2084 4.69063 9.01015 4.19431 7.76073 4.19431C6.51132 4.19431 5.31307 4.69063 4.4296 5.57411C3.54613 6.45758 3.0498 7.65582 3.0498 8.90524C3.0498 10.1547 3.54613 11.3529 4.4296 12.2364L5.33732 13.1441L11.9996 19.8063L18.6618 13.1441L19.5695 12.2364C20.0071 11.799 20.3542 11.2797 20.5911 10.7081C20.8279 10.1366 20.9498 9.52392 20.9498 8.90524C20.9498 8.28655 20.8279 7.67392 20.5911 7.10235C20.3542 6.53079 20.0071 6.01148 19.5695 5.57411V5.57411Z" stroke="#f5f5f5" stroke-width="1.5" stroke-linecap="round" stroke-linejoin="round"/>
</svg>
