<svg width="24" height="24" viewBox="0 0 24 24" fill="none" xmlns="http://www.w3.org/2000/svg">
<path d="M12 1.77783C9.22123 1.77783 6.96875 4.03031 6.96875 6.80908C6.96875 9.05557 10.257 13.1501 11.5168 14.6363C11.772 14.9373 12.2284 14.9373 12.4832 14.6363C13.743 13.1501 17.0312 9.05557 17.0312 6.80908C17.0312 4.03031 14.7788 1.77783 12 1.77783ZM12 8.48617C11.0736 8.48617 10.3229 7.73547 10.3229 6.80908C10.3229 5.88269 11.0736 5.132 12 5.132C12.9264 5.132 13.6771 5.88269 13.6771 6.80908C13.6771 7.73547 12.9264 8.48617 12 8.48617ZM1.3034 10.4008C1.06629 10.4957 0.863021 10.6594 0.719822 10.8708C0.576622 11.0823 0.500057 11.3318 0.5 11.5872L0.5 21.5826C0.5 22.0346 0.956406 22.3437 1.37608 22.176L6.88889 19.6667V10.3597C6.5359 9.72162 6.2472 9.1003 6.04036 8.50613L1.3034 10.4008ZM12 16.1397C11.4382 16.1397 10.9067 15.8929 10.5421 15.4624C9.7571 14.536 8.92215 13.4811 8.16667 12.399V19.6663L15.8333 22.2219V12.3994C15.0778 13.4811 14.2433 14.5364 13.4579 15.4628C13.0933 15.8929 12.5618 16.1397 12 16.1397ZM22.6239 8.21304L17.1111 10.7223V22.2223L22.6966 19.9882C22.9337 19.8934 23.137 19.7297 23.2802 19.5182C23.4235 19.3067 23.5 19.0572 23.5 18.8018V8.80641C23.5 8.35439 23.0436 8.04533 22.6239 8.21304Z" fill="#F5F5F5"/>
</svg>
