<svg width="93" height="39" viewBox="0 0 93 39" fill="none">
<path d="M1.472 7.4C1.152 7.4 0.96 7.592 0.96 7.912V11.112C0.96 11.432 1.152 11.624 1.472 11.624H5.184V32.488C5.184 32.84 5.376 33 5.696 33H9.024C9.376 33 9.536 32.84 9.536 32.488V11.624H13.248C13.6 11.624 13.76 11.432 13.76 11.112V7.912C13.76 7.592 13.6 7.4 13.248 7.4H1.472Z" fill="#1CC8EE"/>
<path d="M24.1148 33C24.3308 33 24.4208 32.892 24.3668 32.694L21.3788 20.652C21.3428 20.472 21.2348 20.4 21.0728 20.4H18.5708C18.4088 20.4 18.3008 20.472 18.2648 20.652L15.2768 32.694C15.2228 32.892 15.3127 33 15.5108 33H17.2748C17.4368 33 17.5268 32.91 17.5628 32.748L18.1208 30.48H21.5048L22.0808 32.748C22.1168 32.91 22.2068 33 22.3688 33H24.1148ZM20.9468 28.392H18.6788L19.8128 23.496L20.9468 28.392ZM26.1196 33C25.9216 33 25.8316 32.892 25.8316 32.712V20.688C25.8316 20.508 25.9216 20.4 26.1196 20.4H27.9916C28.1716 20.4 28.2796 20.508 28.2796 20.688V32.712C28.2796 32.892 28.1716 33 27.9916 33H26.1196ZM40.2735 20.4C40.0395 20.4 39.9315 20.508 39.8955 20.742L38.9775 28.266H38.8875L37.1235 20.706C37.0695 20.508 36.9435 20.4 36.7275 20.4H35.6295C35.4135 20.4 35.2875 20.508 35.2335 20.706L33.4695 28.266H33.3795L32.4975 20.742C32.4615 20.508 32.3355 20.4 32.1195 20.4H30.4275C30.1755 20.4 30.0495 20.544 30.0855 20.778L31.7415 32.658C31.7775 32.892 31.9035 33 32.1375 33H34.1175C34.3335 33 34.4595 32.892 34.5135 32.676L36.1875 25.296L37.8435 32.676C37.8975 32.892 38.0235 33 38.2395 33H40.1835C40.4175 33 40.5435 32.892 40.5795 32.676L42.3075 20.778C42.3435 20.544 42.2175 20.4 41.9655 20.4H40.2735ZM51.3081 33C51.5241 33 51.6141 32.892 51.5601 32.694L48.5721 20.652C48.5361 20.472 48.4281 20.4 48.2661 20.4H45.7641C45.6021 20.4 45.4941 20.472 45.4581 20.652L42.4701 32.694C42.4161 32.892 42.5061 33 42.7041 33H44.4681C44.6301 33 44.7201 32.91 44.7561 32.748L45.3141 30.48H48.6981L49.2741 32.748C49.3101 32.91 49.4001 33 49.5621 33H51.3081ZM48.1401 28.392H45.8721L47.0061 23.496L48.1401 28.392ZM58.731 20.4C58.533 20.4 58.443 20.508 58.443 20.688V27.51L55.059 20.634C54.987 20.472 54.897 20.4 54.735 20.4H53.313C53.133 20.4 53.025 20.508 53.025 20.688V32.712C53.025 32.892 53.133 33 53.313 33H55.005C55.203 33 55.293 32.892 55.293 32.712V25.89L58.677 32.766C58.749 32.928 58.839 33 59.001 33H60.423C60.603 33 60.711 32.892 60.711 32.712V20.688C60.711 20.508 60.603 20.4 60.423 20.4H58.731ZM74.2352 21.192C74.2352 19.5 73.3172 18.6 71.6252 18.6H67.3052C67.1252 18.6 67.0172 18.69 67.0172 18.888V32.712C67.0172 32.892 67.1252 33 67.3052 33H71.6252C73.3172 33 74.2352 32.1 74.2352 30.408V27.096C74.2352 26.43 73.7492 25.926 73.1012 25.818V25.782C73.7492 25.674 74.2352 25.17 74.2352 24.504V21.192ZM71.8412 23.91C71.8412 24.36 71.5892 24.612 71.1212 24.612H69.4832V20.976H71.1212C71.6072 20.976 71.8412 21.228 71.8412 21.696V23.91ZM71.8412 29.904C71.8412 30.39 71.5892 30.624 71.1212 30.624H69.4832V26.988H71.1212C71.6072 26.988 71.8412 27.24 71.8412 27.708V29.904ZM81.2188 20.4C81.0208 20.4 80.8588 20.562 80.8588 20.76V29.904C80.8588 30.39 80.6068 30.624 80.1388 30.624H79.2028C78.7348 30.624 78.4828 30.39 78.4828 29.904V20.76C78.4828 20.562 78.3208 20.4 78.1228 20.4H76.3948C76.1968 20.4 76.0348 20.562 76.0348 20.76V30.408C76.0348 32.1 76.9348 33 78.6268 33H80.6428C82.3348 33 83.2348 32.1 83.2348 30.408V20.76C83.2348 20.562 83.0728 20.4 82.8748 20.4H81.2188ZM87.451 20.4C85.777 20.4 84.859 21.3 84.859 22.992V26.106C84.859 26.448 85.021 26.664 85.345 26.772L89.665 28.176V29.994C89.665 30.48 89.413 30.714 88.945 30.714H87.973C87.523 30.714 87.253 30.48 87.253 29.994V29.238C87.253 29.04 87.163 28.95 86.965 28.95H85.147C84.967 28.95 84.859 29.04 84.859 29.238V30.408C84.859 32.1 85.777 33 87.451 33H89.467C91.159 33 92.059 32.1 92.059 30.408V27.024C92.059 26.682 91.897 26.466 91.591 26.358L87.235 24.954V23.424C87.235 22.956 87.505 22.704 87.955 22.704H88.945C89.431 22.704 89.665 22.956 89.665 23.424V24.18C89.665 24.36 89.773 24.468 89.953 24.468H91.771C91.969 24.468 92.059 24.36 92.059 24.18V22.992C92.059 21.3 91.159 20.4 89.467 20.4H87.451Z" fill="#F5F5F5"/>
<path d="M17 13.2632C17 14.0968 17.3656 14.8453 17.9375 15.3663V17.0526C17.9375 17.5737 18.3594 18 18.875 18H19.8125C20.3281 18 20.75 17.5737 20.75 17.0526V16.1053H28.25V17.0526C28.25 17.5737 28.6719 18 29.1875 18H30.125C30.6406 18 31.0625 17.5737 31.0625 17.0526V15.3663C31.6344 14.8453 32 14.0968 32 13.2632V3.78947C32 0.473684 28.6438 0 24.5 0C20.3562 0 17 0.473684 17 3.78947V13.2632ZM20.2812 14.2105C19.5031 14.2105 18.875 13.5758 18.875 12.7895C18.875 12.0032 19.5031 11.3684 20.2812 11.3684C21.0594 11.3684 21.6875 12.0032 21.6875 12.7895C21.6875 13.5758 21.0594 14.2105 20.2812 14.2105ZM28.7188 14.2105C27.9406 14.2105 27.3125 13.5758 27.3125 12.7895C27.3125 12.0032 27.9406 11.3684 28.7188 11.3684C29.4969 11.3684 30.125 12.0032 30.125 12.7895C30.125 13.5758 29.4969 14.2105 28.7188 14.2105ZM30.125 8.52632H18.875V3.78947H30.125V8.52632Z" fill="#F5F5F5"/>
<line x1="34.5" y1="16.5" x2="90.5" y2="16.5" stroke="#F5F5F5" stroke-linecap="round" stroke-dasharray="2 4"/>
</svg>
