<svg width="24" height="24" viewBox="0 0 24 24" fill="none" xmlns="http://www.w3.org/2000/svg">
<path d="M16.1393 3.50558L5.28672 9.7712C3.57109 10.7618 3.57109 13.2382 5.28672 14.2288L16.1393 20.4944C17.8549 21.485 20 20.2474 20 18.2662V5.73382C20 3.75265 17.8549 2.515 16.1393 3.50558ZM16.4083 13.4126C16.5988 13.5834 16.7177 13.7728 16.7523 13.9587C16.7881 14.163 16.7165 14.3443 16.5318 14.5163C16.3667 14.6583 16.2016 14.7183 16.0042 14.7045C15.8021 14.6929 15.5828 14.5659 15.3322 14.3166L13.9988 12.9923L12.5776 14.4066C12.3963 14.5983 12.222 14.7045 12.0326 14.738C11.9968 14.7437 11.9622 14.7472 11.9287 14.7472C11.7601 14.7472 11.6101 14.6699 11.4727 14.5128C11.3353 14.3524 11.2764 14.1861 11.2879 13.9887C11.2995 13.7809 11.4346 13.5557 11.6897 13.3214L13.0082 12.011L11.6493 10.6613C11.4542 10.4766 11.3318 10.278 11.2995 10.0898C11.2729 9.86587 11.3341 9.69384 11.49 9.53798C11.632 9.39598 11.7786 9.32786 11.9403 9.32786C12.1319 9.32786 12.3178 9.40406 12.5268 9.56915L12.5418 9.58185L13.9988 11.0227L15.4304 9.60725C15.6301 9.40752 15.8287 9.28976 16.0203 9.25743C16.227 9.23088 16.4025 9.29669 16.5618 9.45601C16.6992 9.58185 16.7719 9.7331 16.7719 9.89819C16.7604 10.1176 16.683 10.3023 16.5272 10.4882L16.5156 10.5009L14.9894 12.0017L16.4083 13.4126Z" fill="#1CC8EE"/>
</svg>
