<svg width="24" height="24" viewBox="0 0 24 24" fill="none" xmlns="http://www.w3.org/2000/svg">
<path fill-rule="evenodd" clip-rule="evenodd" d="M6.61621 11.328C6.61621 8.72561 8.72585 6.61597 11.3282 6.61597C13.9306 6.61597 16.0403 8.72561 16.0403 11.328C16.0403 12.5827 15.5499 13.7228 14.7503 14.5672C14.7165 14.5933 14.6839 14.6219 14.6529 14.6529C14.6219 14.6839 14.5933 14.7165 14.5672 14.7503C13.7228 15.5497 12.5828 16.04 11.3282 16.04C8.72585 16.04 6.61621 13.9304 6.61621 11.328ZM15.3144 16.7287C14.1997 17.5528 12.8209 18.04 11.3282 18.04C7.62129 18.04 4.61621 15.0349 4.61621 11.328C4.61621 7.62104 7.62129 4.61597 11.3282 4.61597C15.0352 4.61597 18.0403 7.62104 18.0403 11.328C18.0403 12.8208 17.5529 14.1998 16.7287 15.3145L19.0911 17.6769C19.4816 18.0674 19.4816 18.7006 19.0911 19.0911C18.7006 19.4817 18.0674 19.4817 17.6769 19.0911L15.3144 16.7287Z" fill="#F5F5F5"/>
</svg>
